<?xml version="1.0" encoding="UTF-8"?>
<svg width="24px" height="24px" viewBox="0 0 24 24" version="1.1" xmlns="http://www.w3.org/2000/svg" xmlns:xlink="http://www.w3.org/1999/xlink">
    <!-- Generator: Sketch 57.1 (83088) - https://sketch.com -->
    <title>Artboard</title>
    <desc>Created with Sketch.</desc>
    <g id="Artboard" stroke="none" stroke-width="1" fill="none" fill-rule="evenodd">
        <g id="noun_up_2796562" fill="#FFFFFF" fill-rule="nonzero">
            <path d="M12,0 C5.372583,0 0,5.372583 0,12 C0,18.627417 5.372583,24 12,24 C18.627417,24 24,18.627417 24,12 C24,5.372583 18.627417,0 12,0 Z M18,12 C17.4143649,12.5849068 16.4656351,12.5849068 15.88,12 L13.5,9.62 L13.5,18 C13.5,18.8284271 12.8284271,19.5 12,19.5 C11.1715729,19.5 10.5,18.8284271 10.5,18 L10.5,9.62 L8.07,12 C7.74047873,12.5198179 7.12686054,12.7855975 6.5222797,12.6703722 C5.91769886,12.5551468 5.44485317,12.0823011 5.32962784,11.4777203 C5.2144025,10.8731395 5.48018214,10.2595213 6,9.93 L11,4.93 C11.139843,4.78860585 11.3064061,4.67643069 11.49,4.6 L11.49,4.6 C11.8397093,4.45928645 12.2302907,4.45928645 12.58,4.6 L12.58,4.6 C12.7635939,4.67643069 12.930157,4.78860585 13.07,4.93 L18.07,9.93 C18.6032287,10.527967 18.5724066,11.4394216 18,12 L18,12 Z" id="Shape"></path>
        </g>
    </g>
</svg>