<svg width="40" height="40" xmlns="http://www.w3.org/2000/svg"><path d="M39.266 35.926L28.315 24.97a15.501 15.501 0 0 0 3-9.234C31.277 7.07 24.268.05 15.602 0A15.531 15.531 0 0 0 0 15.623C.038 24.29 7.048 31.31 15.715 31.36a15.453 15.453 0 0 0 9.261-3.033l.011-.008L35.93 39.266a2.361 2.361 0 1 0 3.337-3.34zm-23.563-7.703c-6.933-.04-12.54-5.655-12.571-12.589a12.429 12.429 0 0 1 12.48-12.498c6.933.04 12.54 5.655 12.571 12.588a12.429 12.429 0 0 1-12.48 12.499z" fill="#8E8E93" fill-rule="evenodd"/></svg>