<?xml version="1.0" encoding="UTF-8"?>
<svg width="140px" height="62px" viewBox="0 0 140 62" version="1.1" xmlns="http://www.w3.org/2000/svg" xmlns:xlink="http://www.w3.org/1999/xlink">
    <!-- Generator: Sketch 54.1 (76490) - https://sketchapp.com -->
    <title>Artboard</title>
    <desc>Created with Sketch.</desc>
    <g id="Artboard" stroke="none" stroke-width="1" fill="none" fill-rule="evenodd">
        <path d="M0,0 L53,0 L53,62 L0,62 L0,0 Z M16.6164276,31.9827674 C19.3081221,32.7531716 21.16632,33.5337011 22.1910768,34.3243791 C23.2158336,35.1150572 23.7282043,36.2334782 23.7282043,37.6796756 C23.7282043,39.1258731 23.1748439,40.2679465 22.0681066,41.1059301 C20.9613692,41.9439136 19.3696042,42.3628991 17.2927637,42.3628991 C15.0656255,42.3628991 13.2859912,41.8459251 11.9538073,40.8119615 C10.6216235,39.7779979 9.95554154,38.3689902 9.95554154,36.5848961 L6,36.5848961 C6,38.3014108 6.48162848,39.8354384 7.44489989,41.1870248 C8.4081713,42.5386113 9.77790903,43.6029696 11.5541542,44.3801318 C13.3303993,45.157294 15.24325,45.5458692 17.2927637,45.5458692 C20.4490147,45.5458692 22.9698786,44.8261603 24.8554312,43.3867207 C26.7409837,41.9472812 27.6837459,40.0314362 27.6837459,37.6391282 C27.6837459,36.1388673 27.3455812,34.834606 26.6692417,33.7263051 C25.9929022,32.6180043 24.9544975,31.6482555 23.5539965,30.8170299 C22.1534955,29.9858043 20.2133184,29.2255483 17.7334069,28.5362392 C15.2534954,27.8469302 13.4977717,27.0866742 12.4661832,26.2554486 C11.4345947,25.4242229 10.9188081,24.4071694 10.9188081,23.2042575 C10.9188081,21.7039966 11.4619211,20.5315129 12.5481633,19.6867714 C13.6344056,18.8420299 15.1476071,18.4196655 17.0878133,18.4196655 C19.1783172,18.4196655 20.7974087,18.9298817 21.9451364,19.9503294 C23.092864,20.9707772 23.6667192,22.3730271 23.6667192,24.1571211 L27.6222608,24.1571211 C27.6222608,22.5217016 27.1816219,21.0147053 26.3003311,19.6360872 C25.4190402,18.257469 24.1756873,17.1762161 22.5702349,16.392296 C20.9647826,15.6083759 19.137327,15.2164217 17.0878133,15.2164217 C14.08186,15.2164217 11.6395596,15.9766776 9.76083872,17.4972124 C7.88211789,19.0177471 6.94277156,20.9403499 6.94277156,23.2650786 C6.94277156,25.3194899 7.71132764,27.0461157 9.24846287,28.4450076 C10.7855981,29.8438995 13.2415618,31.023141 16.6164276,31.9827674 Z M39.3864102,39.646224 L33.8527511,23.2042575 L29.7127542,23.2042575 L37.6238373,44.897111 L36.7835409,47.1272174 C36.3189845,48.4923197 35.7280503,49.4316582 35.0107205,49.945261 C34.2933907,50.4588639 33.2925599,50.7156614 32.008198,50.7156614 L30.9834463,50.6345666 L30.9834463,53.6756209 L32.3976037,53.9391789 L33.1149298,54 C36.1208832,54 38.3138299,52.1753857 39.6938357,48.5261024 L48.6091755,23.2042575 L44.5511588,23.2042575 L39.3864102,39.646224 Z" id="Rectangle-2" fill="#3B3B3B"></path>
        <path d="M59.0822218,44.2344528 L58.9491891,46.0886889 L54.5,46.0886889 L54.5,13.5 L59.2911686,13.5 L59.2911686,24.5195605 C60.8174948,23.1251777 62.7699415,22.4254499 65.1234447,22.4254499 C67.9696465,22.4254499 70.2326235,23.5187635 71.8655137,25.6891134 C73.4742248,27.8273257 74.2714077,30.7287056 74.2714077,34.3804627 L74.2714077,34.7095116 C74.2714077,38.2116659 73.4626629,41.0487616 71.8343076,43.2061077 C70.1819522,45.3952507 67.9436968,46.5 65.1644303,46.5 C62.6728267,46.5 60.6359232,45.7430944 59.0822218,44.2344528 Z M59.2911686,29.7635181 L59.2911686,39.1556689 C60.3697698,41.2497771 61.9922351,42.2712082 64.2217614,42.2712082 C65.8796234,42.2712082 67.141406,41.6411359 68.0572165,40.3619014 C68.9980395,39.0477288 69.4802391,37.0205324 69.4802391,34.277635 C69.4802391,31.7813505 69.0061294,29.8781792 68.0758476,28.5609301 C67.1745181,27.2846767 65.893712,26.6542416 64.1807758,26.6542416 C61.9119984,26.6542416 60.305488,27.6736253 59.2911686,29.7635181 Z M81.8984902,36.0526992 C82.0294606,37.8937935 82.6181275,39.3815298 83.6609621,40.5333048 C84.7879762,41.7780531 86.2069465,42.3946015 87.9524274,42.3946015 C89.2063489,42.3946015 90.2528311,42.141542 91.100055,41.6414058 C91.9733419,41.125884 92.7382931,40.4420799 93.3967104,39.5869856 L93.7039598,39.1879573 L96.7771431,41.5897289 L96.5280883,41.9738263 C94.5754386,44.9852422 91.6288597,46.5 87.7474994,46.5 C84.6084401,46.5 82.0312334,45.4560659 80.0488727,43.3729643 C78.0698924,41.2934149 77.083069,38.5197827 77.083069,35.0796915 L77.083069,34.3804627 C77.083069,32.1000391 77.5190364,30.054745 78.3933983,28.2498761 C79.2726715,26.4348694 80.5082879,25.0074243 82.0958343,23.9765417 C83.6860921,22.9438985 85.4165704,22.4254499 87.2761649,22.4254499 C90.3008843,22.4254499 92.6831258,23.4385813 94.3808927,25.4627467 C96.0632437,27.4685326 96.8954623,30.3095484 96.8954623,33.9691517 L96.8954623,36.0526992 L81.8984902,36.0526992 Z M82.0745259,31.9267352 L92.089134,31.9267352 C91.9582233,30.214948 91.4815115,28.9020326 90.6704247,27.9743506 C89.839685,27.0241905 88.7211925,26.5514139 87.2761649,26.5514139 C85.8848784,26.5514139 84.7334192,27.0523558 83.7897968,28.0678589 C82.9252424,28.998271 82.3511634,30.2811239 82.0745259,31.9267352 Z M105.399976,46.0886889 L100.608807,46.0886889 L100.608807,13.5 L105.399976,13.5 L105.399976,46.0886889 Z M115.584899,46.0886889 L110.79373,46.0886889 L110.79373,13.5 L115.584899,13.5 L115.584899,46.0886889 Z M124.503028,36.0526992 C124.633998,37.8937935 125.222665,39.3815298 126.2655,40.5333048 C127.392514,41.7780531 128.811484,42.3946015 130.556965,42.3946015 C131.810887,42.3946015 132.857369,42.141542 133.704593,41.6414058 C134.57788,41.125884 135.342831,40.4420799 136.001248,39.5869856 L136.308497,39.1879573 L139.381681,41.5897289 L139.132626,41.9738263 C137.179976,44.9852422 134.233397,46.5 130.352037,46.5 C127.212978,46.5 124.635771,45.4560659 122.65341,43.3729643 C120.67443,41.2934149 119.687607,38.5197827 119.687607,35.0796915 L119.687607,34.3804627 C119.687607,32.1000391 120.123574,30.054745 120.997936,28.2498761 C121.877209,26.4348694 123.112826,25.0074243 124.700372,23.9765417 C126.29063,22.9438985 128.021108,22.4254499 129.880703,22.4254499 C132.905422,22.4254499 135.287664,23.4385813 136.98543,25.4627467 C138.667781,27.4685326 139.5,30.3095484 139.5,33.9691517 L139.5,36.0526992 L124.503028,36.0526992 Z M124.679064,31.9267352 L134.693672,31.9267352 C134.562761,30.214948 134.086049,28.9020326 133.274962,27.9743506 C132.444223,27.0241905 131.32573,26.5514139 129.880703,26.5514139 C128.489416,26.5514139 127.337957,27.0523558 126.394335,28.0678589 C125.52978,28.998271 124.955701,30.2811239 124.679064,31.9267352 Z" id="belle" stroke="#5E5E5E" fill="#FFFFFF" fill-rule="nonzero"></path>
    </g>
</svg>