<svg width="20" height="20" xmlns="http://www.w3.org/2000/svg"><path d="M19.32 6.427c-.06-.05-.541-.438-1.195-.964V3.75c0-1.036-.84-1.875-1.875-1.875h-2.583C12.783 1.127 11.475 0 10 0 8.53 0 7.23 1.118 6.334 1.875H3.75c-1.036 0-1.875.84-1.875 1.875v1.713c-.657.528-1.139.916-1.19.96A1.875 1.875 0 0 0 0 7.87v10.255C0 19.161.84 20 1.875 20h16.25C19.161 20 20 19.16 20 18.125V7.871c0-.559-.25-1.089-.68-1.444zM3.75 3.75h12.5v6.12c-1.416 1.145-3.074 2.487-3.382 2.732-.71.567-1.946 1.773-2.868 1.773-.925 0-2.182-1.225-2.868-1.773-.308-.245-1.966-1.588-3.382-2.733V3.75zm14.375 14.14c0 .13-.105.235-.234.235H2.109a.235.235 0 0 1-.234-.234v-7.127c1.522 1.23 3.748 3.033 4.088 3.304.862.688 2.34 2.182 4.037 2.182 1.688 0 3.15-1.473 4.037-2.182.351-.28 2.572-2.078 4.088-3.303v7.126zM6.875 7.5h6.25c.345 0 .625-.28.625-.625V6.25a.625.625 0 0 0-.625-.625h-6.25a.625.625 0 0 0-.625.625v.625c0 .345.28.625.625.625zM13.75 10v-.625a.625.625 0 0 0-.625-.625h-6.25a.625.625 0 0 0-.625.625V10c0 .345.28.625.625.625h6.25c.345 0 .625-.28.625-.625z" fill="#F55691" fill-rule="nonzero"/></svg>