<svg width="20" height="20" xmlns="http://www.w3.org/2000/svg"><path d="M11.333 16.25c0 .691-.546 1.25-1.222 1.25-.676 0-1.222-.559-1.222-1.25S9.435 15 10.11 15c.676 0 1.222.559 1.222 1.25zm1.834-2.344V3.594a.465.465 0 0 0-.459-.469H7.514a.465.465 0 0 0-.458.469v10.312c0 .258.206.469.458.469h5.194c.252 0 .459-.21.459-.469zm3.055-12.031v16.25c0 1.035-.821 1.875-1.833 1.875H5.833C4.821 20 4 19.16 4 18.125V1.875C4 .84 4.821 0 5.833 0h8.556c1.012 0 1.833.84 1.833 1.875zM14.39 17.891V2.109a.232.232 0 0 0-.23-.234H6.063a.232.232 0 0 0-.229.234v15.782c0 .129.103.234.23.234h8.097c.126 0 .229-.105.229-.234z" fill="#F55691" fill-rule="nonzero"/></svg>