<?xml version="1.0" encoding="UTF-8"?>
<svg width="220" height="53" viewBox="0 0 220 53" xmlns="http://www.w3.org/2000/svg">
  <path d="M220 12.7h-.5c-.3.3-1.6 2.3-7.1 2.5-9.8 0-18.3-10.3-26.6-10.1-4 0-8 2.3-10.2 8a15.2 15.2 0 0 0 .3 11.5c-2 3.5-4.6 6.3-8.3 8.9A17 17 0 0 1 159 37c-1 0-1.8-.3-2.3-.8-.5-.6-1.1-2.1 0-5.9 2 0 15.2-1.9 15.3-7.6 0-1-.3-1.9-1-2.5-1-1-2.5-1.4-4.5-1.4-4 0-9.1 1.8-12 4.1a16.6 16.6 0 0 0-5.9 10.8c-.7.8-2.6 1.8-4.1 1.8-.4 0-1 0-1.2-.4-.3-.4-.9-1.6 1-5.3 4-8 11.8-25.2 11.9-25.4 0-.1 0-.3-.2-.5-.1-.2-.4-.2-.5-.2 0 0-7 1.3-10.4 1.3h-1.3c-.2 0-.3.2-.2.4 0 .3.1.4.5.4h1l2.6.1L135 31.5c-.4.8-.6 1.5-.7 2.2a6 6 0 0 1-4 1.8c-.3 0-.8 0-1-.3-.3-.3-.9-1.5 1-5.4 4-8 11.9-25.2 12-25.4 0-.1 0-.3-.2-.5-.1-.2-.4-.2-.5-.2-.1 0-7 1.3-10.4 1.3H130c-.2 0-.3.2-.2.4 0 .3.1.4.5.4h1l2.6.1-10.5 21.4c-1 1.2-3.7 4-6.5 6.2a16.3 16.3 0 0 1-8.6 3.5c-1 0-1.8-.3-2.3-.8-.5-.6-1.2-2.1 0-5.9 2 0 15.2-1.9 15.3-7.6 0-1-.3-1.9-1-2.5-1-1-2.5-1.4-4.5-1.4-4 0-9.2 1.8-12 4.1-3.8 3-7.6 10.2-5 14.2 1.3 2 3.7 3 7.2 3 6.4 0 11.3-3.1 14.5-6.1a5 5 0 0 0 1.2 3.6 7.1 7.1 0 0 0 5.5 2.5 9 9 0 0 0 7.4-4.2l.9 1.6a7.5 7.5 0 0 0 5.8 2.6c3 0 5.8-1.6 7.7-4.3.1.5.3.9.6 1.3 1.2 2 3.6 3 7.2 3 12.6 0 19.3-14 19.6-14.5 5.3 10 17.8 4.6 9.4-2.5 5-4.8-4.3-7.8-9.7 1-.8-2-1.4-6 .2-10.7 1.7-5 6-7.9 9.8-7.5 9.8.9 21.7 15.3 33.8 7.3.2-.2.1-.4 0-.5m-43.3 12.5c3.4-7.6 12.6-6.5 8.2-2.3v.2l.1.2c8.4 6.6-4.3 9.3-8.3 2m-69.6 3c2-4.4 6.1-7.5 8.2-7.5l.5.1c.1 0 .2.2.2.5 0 2-3.8 6.6-9 6.9m50.8 0c2-4.4 6.1-7.5 8.2-7.5l.6.1v.5c0 2-3.7 6.6-8.8 6.9m-67.4-24L90 4c-.1-.2-.4-.2-.5-.2-.1 0-6.4 1-9.9 1.1-4.4 0-8 2-9.5 2.7-1.5.7-8.1 3.5-12.6 0-1.2-1.1-1.7-.4-1.4 0C61.8 13 72.1 6.5 76 5.8c3.9-.8 5.9 0 5.9 0L69.7 30.6c-1 1.8-.5 4 1 6 2 2.3 5.2 3.7 8.6 3.7 3.6 0 9-1.4 14.7-8.2 2.1-2.6 2.9-5 2.2-7.4-.5-1.5-1.5-3-3.2-4.2-1.2-1-3-1.5-4.9-1.5-1.7 0-3.5.4-5 1.2l7.2-15.8m-3.6 17c.4 0 1 .1 1.5.5.2.2.4.5.5 1 .8 2.5-1 8.1-3.5 10.9-2.5 2.6-5.1 4.3-7 4.3-.5 0-1-.2-1.2-.5-.3-.3-1.2-1.9.7-6.3l2.2-4.6c1.6-3.4 4.6-5.2 6.8-5.2m-42.5-11c.5-2.5-.3-5.4-2.2-7.4C40.7 1.7 38.2 0 33.7 0c-1.2 0-2.5.1-3.8.4-6.3 1.1-9.7 3.2-10.5 6.4-.5 2.4.4 5.4 3 9 1 1.5 2.4 3 3.8 4.4 1.8 2 3.7 3.9 5.1 6.2 1.4 2.2 1.7 4.2 1 6-1.4 3.2-6 5.4-11.6 5.4-5.4 0-12.1-2.2-14.7-8.4-1.2-3.1-1.3-5.7-.2-7.5 1.7-3 5.7-3.3 7.3-3.3 2.1 0 4.2.5 5.4 1.3 3.9 2.5 2.6 6.9 2.6 7-.3 1 .7 1.1 1 .9.1-.1 3.2-2.2 2.6-5.6-.3-1.5-1.2-3-2.9-4.3-1.3-1.1-3.4-1.7-6-1.7-6.2 0-13.9 3.2-15.5 8.5-.8 2.6 0 5.5 2.3 8.5 3.7 4.8 9.8 7.4 17.2 7.4 10.7 0 21.6-6 19-13.5-1.7-5.2-4.6-8-7-10.4-2.5-2.2-4.5-4.1-5.4-7.7-1.3-6 2.9-6.6 4.7-6.6 3 0 6.4 1.5 7.5 3.4 2 3.4-.1 6.8-1.1 7.2-.8.4.5 1.9 2 1.9 2.4 0 4.1-1.7 4.7-4.3M29.5 48.3c0 .6.2 2 2.2 3.3 1.2.9 3.8 1.4 7 1.4 7.7 0 17-2.9 20.3-9.3 4-8 11.7-25.2 11.8-25.4l-.1-.5c-.2-.2-.4-.3-.6-.2 0 0-6.9 1.3-10.4 1.3h-.2-1c-.2 0-.4.2-.3.4.1.3.4.4.6.4h.3l3.2.1-7.3 14a5.8 5.8 0 0 1-4.8 2.6c-.8 0-1.5-.2-1.7-.5-.3-.3-.2-.8 0-1.3l7.3-16.1c0-.2 0-.4-.2-.5-.1-.2-.3-.3-.5-.3-11.3 1.2-11.3 1.3-11 1.8.1.5.6.5.8.5h.3l2.4-.1-6 12.5c-1 2.3-1 4.2.2 5.7 1.2 1.4 3.4 2.2 6 2.2 2 0 4-.4 5.5-1.3-3.8 10.1-8.8 12.2-13 12.3-3.2.2-3.5 0-4-.2 0-.5.3-1.5-1.1-3-1-1.1-2.2-1.7-3.3-1.7-1.4 0-2.4.8-2.4 2" fill="#343231" />
</svg>
